# https://github.com/mikedh/trimesh
v 80.88000298 34.91843132 79.19847965
v 80.43984413 34.91843132 80.43790817
v 80.88000298 13.17184834 79.19847965
v 80.88000298 34.91843132 0.23004532
v 80.43984413 13.17184834 80.43790817
v 79.19796944 34.91843132 80.88000298
v 80.29050827 12.07798390 80.28791428
v 80.43984413 11.93121819 79.19847965
v 80.88000298 13.17184834 0.23004532
v 26.30828381 34.91843132 0.23004532
v 79.19796944 13.17184834 80.88000298
v 0.59049129 34.91843132 80.88000298
v 79.19796944 11.49321465 79.19847965
v 79.19796944 11.93121819 80.43790817
v 80.43984413 11.93121819 0.23004532
v 0.59049129 33.61359028 0.23004532
v 0.59049129 34.91843132 26.07655525
v 0.59049129 13.17184834 80.88000298
v 0.59049129 11.49321465 79.19847965
v 79.19796944 11.49321465 0.23004532
v 0.59049129 11.93121819 80.43790817
v 0.59049129 11.49321465 0.23004532
f 1 2 5
f 1 5 3
f 1 3 9
f 1 9 4
f 1 4 10
f 1 10 17
f 1 17 12
f 1 12 6
f 1 6 2
f 2 6 11
f 2 11 5
f 3 5 7
f 3 7 8
f 3 8 15
f 3 15 9
f 4 9 15
f 4 15 20
f 4 20 22
f 4 22 16
f 4 16 10
f 5 11 7
f 6 12 18
f 6 18 11
f 7 13 8
f 7 11 14
f 7 14 13
f 8 13 20
f 8 20 15
f 10 16 17
f 11 18 21
f 11 21 14
f 12 17 16
f 12 16 22
f 12 22 19
f 12 19 21
f 12 21 18
f 13 14 21
f 13 21 19
f 13 19 22
f 13 22 20

