# https://github.com/mikedh/trimesh
v -23.20326328 93.25090794 17.23352075
v -21.60062790 93.20573715 17.23352075
v -23.20326328 93.25090794 15.19962788
v -79.19875145 93.25090794 17.23352075
v -20.02218246 92.85003571 17.23352075
v -21.60062790 93.18879990 16.79911375
v -28.00512314 93.25090794 0.23004651
v -79.19875145 93.25090794 0.23004651
v -80.43851852 92.81051544 17.23352075
v -19.42346334 92.60160832 17.23352075
v -26.40248775 92.90649800 0.23004651
v -27.43059397 93.13234238 0.23004651
v -80.43851852 92.81051544 0.23004651
v -80.88000298 91.56837372 17.23352075
v -19.11503077 91.56837372 17.23352075
v -25.53766966 92.46610073 0.23004651
v -26.09405518 92.75405316 0.23004651
v -80.88000298 91.56837372 0.23004651
v -80.88000298 35.57049779 17.23352075
v -19.09688711 35.57049779 17.23352075
v -25.38043022 35.57614593 0.23004651
v -25.47114372 91.56837372 0.23004651
v -80.88000298 35.57049779 0.23004651
v -25.38043022 35.57049779 0.23004651
f 1 2 3
f 1 3 7
f 1 7 8
f 1 8 4
f 1 4 9
f 1 9 14
f 1 14 19
f 1 19 20
f 1 20 15
f 1 15 10
f 1 10 5
f 1 5 2
f 2 5 6
f 2 6 7
f 2 7 3
f 4 8 13
f 4 13 9
f 5 10 11
f 5 11 6
f 6 11 12
f 6 12 7
f 7 12 11
f 7 11 17
f 7 17 16
f 7 16 22
f 7 22 21
f 7 21 24
f 7 24 23
f 7 23 18
f 7 18 13
f 7 13 8
f 9 13 18
f 9 18 14
f 10 15 16
f 10 16 17
f 10 17 11
f 14 18 23
f 14 23 19
f 15 20 21
f 15 21 22
f 15 22 16
f 19 23 24
f 19 24 20
f 20 24 21

