# https://github.com/mikedh/trimesh
v -79.18576717 13.17261605 -80.88000298
v -80.27831078 12.07821278 -80.29248238
v -80.42081833 13.17261605 -80.43539047
v -79.18576717 33.63035588 -80.88000298
v 0.57002351 13.17261605 -80.88000298
v -79.18576717 11.93301586 -80.43539047
v -79.18576717 11.49092106 -79.18889046
v -80.42081833 11.93301586 -79.18889046
v -80.86417198 13.17261605 -79.18889046
v -80.42081833 33.63035588 -80.43539047
v 0.57002351 33.63035588 -80.88000298
v 79.18576717 13.17478327 -80.88000298
v 79.18576717 11.93301586 -80.43539047
v -79.18576717 11.49092106 0.23004532
v 79.18576717 11.49092106 -79.18889046
v -80.42081833 11.93301586 0.23004532
v -80.86417198 33.63035588 -79.18889046
v -80.86417198 13.17261605 0.23004532
v 0.57002351 33.63035588 -23.20739269
v 80.86417198 33.62818865 -79.18889046
v 80.43664932 33.62818865 -80.43539047
v 79.18576717 33.62818865 -80.88000298
v 80.43664932 13.17478327 -80.43539047
v 80.27831078 12.08038239 -80.29248238
v 79.18576717 11.49092106 0.23004532
v 80.43664932 11.93301586 -79.18889046
v -80.86417198 33.63035588 0.23004532
v -22.61093378 33.63035588 0.23004532
v 80.86417198 33.62818865 0.23004532
v 80.86417198 13.17478327 -79.18889046
v 80.43664932 11.93301586 0.23004532
v 80.86417198 13.17478327 0.23004532
f 1 2 3
f 1 3 10
f 1 10 4
f 1 4 11
f 1 11 22
f 1 22 12
f 1 12 5
f 1 5 13
f 1 13 6
f 1 6 2
f 2 6 7
f 2 7 8
f 2 8 9
f 2 9 3
f 3 9 17
f 3 17 10
f 4 10 17
f 4 17 27
f 4 27 28
f 4 28 19
f 4 19 11
f 5 12 13
f 6 13 15
f 6 15 7
f 7 14 16
f 7 16 8
f 7 15 25
f 7 25 14
f 8 16 18
f 8 18 9
f 9 18 27
f 9 27 17
f 11 19 29
f 11 29 20
f 11 20 21
f 11 21 22
f 12 22 21
f 12 21 23
f 12 23 24
f 12 24 13
f 13 24 15
f 14 25 31
f 14 31 32
f 14 32 29
f 14 29 28
f 14 28 27
f 14 27 18
f 14 18 16
f 15 24 26
f 15 26 31
f 15 31 25
f 19 28 29
f 20 29 32
f 20 32 30
f 20 30 23
f 20 23 21
f 23 30 24
f 24 30 26
f 26 30 32
f 26 32 31

