# https://github.com/mikedh/trimesh
v -80.88000298 13.17188410 0.23004532
v -80.88000298 33.61852793 0.23004532
v -80.43345451 11.93282513 0.23004532
v -80.88000298 13.17188410 79.19847965
v -80.88000298 33.61852793 79.19847965
v -21.96791172 33.61852793 0.23004532
v -79.19748306 11.49092106 0.23004532
v -80.43345451 11.93282513 79.19847965
v -80.28992653 12.07796006 80.28791428
v -80.43345451 13.17188410 80.43790817
v -80.43345451 33.61852793 80.43790817
v 0.58262825 33.61852793 23.20296764
v 0.58262825 33.61419467 0.23004532
v -79.19748306 11.49092106 79.19847965
v 0.58262825 11.49092106 0.23004532
v -79.19748306 11.93282513 80.43790817
v -79.19748306 13.17188410 80.88000298
v -79.19748306 33.61852793 80.88000298
v 0.58262825 33.61852793 80.88000298
v 0.58262825 11.49092106 79.19847965
v 0.58262825 11.93282513 80.43790817
v 0.58262825 13.17188410 80.88000298
f 1 2 6
f 1 6 13
f 1 13 15
f 1 15 7
f 1 7 3
f 1 3 8
f 1 8 4
f 1 4 5
f 1 5 2
f 2 5 11
f 2 11 18
f 2 18 19
f 2 19 12
f 2 12 6
f 3 7 14
f 3 14 8
f 4 8 9
f 4 9 10
f 4 10 11
f 4 11 5
f 6 12 13
f 7 15 20
f 7 20 14
f 8 14 9
f 9 14 16
f 9 16 17
f 9 17 10
f 10 17 18
f 10 18 11
f 12 19 22
f 12 22 21
f 12 21 20
f 12 20 15
f 12 15 13
f 14 20 21
f 14 21 16
f 16 21 22
f 16 22 17
f 17 22 19
f 17 19 18

