# https://github.com/mikedh/trimesh
v -80.88000298 45.02804188 17.23352194
v -80.88000298 45.02804188 79.19788361
v -80.88000298 91.57047180 17.23352194
v -19.12118673 45.02804188 17.23352194
v -80.43345451 45.02804188 80.43766975
v -80.88000298 91.57047180 79.19788361
v -80.76039314 91.90561442 17.23352194
v -19.12118673 91.57047180 17.23352194
v 0.58262825 45.02804188 26.27959490
v -79.30912018 45.02804188 80.83639145
v -80.43345451 91.57047180 80.43766975
v -80.28992653 92.66086964 80.28814316
v -80.43345451 92.80719666 79.19788361
v -80.43345451 92.80719666 17.23352194
v -19.42419767 92.59950070 17.23352194
v 0.58262825 91.57047180 26.28582478
v 0.58262825 89.97028021 26.27959490
v 0.58262825 45.02804188 80.87377548
v -79.19748306 45.02804188 80.87377548
v -79.19748306 91.57047180 80.87377548
v -79.19748306 92.80719666 80.43766975
v -79.19748306 93.25090794 79.19788361
v -79.19748306 93.25090794 17.23352194
v -20.02225161 92.84967808 17.23352194
v 0.58262825 92.80719666 26.74685240
v 0.58262825 91.57047180 80.87377548
v 0.58262825 92.80719666 80.43766975
v 0.58262825 93.25090794 79.19788361
v -23.20388794 93.25090794 17.23352194
v -21.60110712 93.20842175 17.23352194
v 0.58262825 93.25090794 28.00532818
f 1 2 6
f 1 6 3
f 1 3 7
f 1 7 14
f 1 14 23
f 1 23 29
f 1 29 30
f 1 30 24
f 1 24 15
f 1 15 8
f 1 8 4
f 1 4 9
f 1 9 18
f 1 18 19
f 1 19 10
f 1 10 5
f 1 5 2
f 2 5 11
f 2 11 6
f 3 6 7
f 4 8 17
f 4 17 9
f 5 10 11
f 6 11 12
f 6 12 13
f 6 13 7
f 7 13 14
f 8 15 16
f 8 16 17
f 9 17 16
f 9 16 25
f 9 25 31
f 9 31 28
f 9 28 27
f 9 27 26
f 9 26 18
f 10 19 20
f 10 20 11
f 11 20 12
f 12 20 21
f 12 21 22
f 12 22 13
f 13 22 23
f 13 23 14
f 15 24 25
f 15 25 16
f 18 26 20
f 18 20 19
f 20 26 27
f 20 27 21
f 21 27 28
f 21 28 22
f 22 28 31
f 22 31 29
f 22 29 23
f 24 30 25
f 25 30 31
f 29 31 30

