# https://github.com/mikedh/trimesh
v 15.28036118 33.63086371 -16.96049929
v 15.28678179 33.63086371 -16.88477755
v 20.05778313 38.80618719 -16.96049929
v 80.88000298 33.63086371 -16.96049929
v 23.44820976 33.63086371 0.22836387
v 26.58820868 38.81125836 0.22836387
v 20.16694307 38.81125836 -16.83093071
v 20.51369190 38.81125836 -16.96049929
v 80.88000298 38.81125836 -16.96049929
v 80.88000298 33.63086371 0.22836387
v 80.88000298 38.81125836 0.22836387
f 1 2 3
f 1 3 8
f 1 8 9
f 1 9 4
f 1 4 10
f 1 10 5
f 1 5 2
f 2 5 6
f 2 6 3
f 3 7 8
f 3 6 7
f 4 9 11
f 4 11 10
f 5 10 11
f 5 11 6
f 6 11 9
f 6 9 8
f 6 8 7

