# https://github.com/mikedh/trimesh
v -80.88000298 33.62177042 17.23352194
v -80.88000298 33.62177042 79.19788361
v -80.88000298 45.02804009 17.23352194
v -13.70224476 33.62177042 17.23352194
v -80.43836594 33.62177042 80.43766975
v -80.88000298 45.02804009 79.19788361
v -19.11403894 45.02804009 17.23352194
v -9.26485300 33.62177042 20.13050795
v -79.47096825 33.62177042 80.78032494
v -80.43836594 45.02804009 80.43766975
v -9.26485300 45.02804009 24.35450077
v -9.26485300 33.62177042 80.87377548
v -79.19757843 33.62177042 80.87377548
v -79.30974007 45.02804009 80.83639145
v -9.26485300 45.02804009 80.87377548
v -79.19757843 45.02804009 80.87377548
f 1 2 6
f 1 6 3
f 1 3 7
f 1 7 4
f 1 4 8
f 1 8 12
f 1 12 13
f 1 13 9
f 1 9 5
f 1 5 2
f 2 5 10
f 2 10 6
f 3 6 10
f 3 10 14
f 3 14 16
f 3 16 15
f 3 15 11
f 3 11 7
f 4 7 8
f 5 9 10
f 7 11 8
f 8 11 15
f 8 15 12
f 9 13 14
f 9 14 10
f 12 15 16
f 12 16 13
f 13 16 14

