# https://github.com/mikedh/trimesh
v -80.88000298 33.63086371 -15.45238018
v -80.88000298 33.63086371 0.22851169
v -80.88000298 38.80517272 -15.45238018
v -16.66330814 33.63086371 -15.45238018
v -80.88000298 38.81125836 0.22851169
v -22.61663198 33.63086371 0.22851169
v -80.88000298 38.81125836 -15.19906759
v -73.13502312 38.81125836 -15.45238018
v -20.17746687 38.81125836 -15.45238018
v -25.47070742 38.81125836 0.22851169
f 1 2 5
f 1 5 7
f 1 7 3
f 1 3 8
f 1 8 9
f 1 9 4
f 1 4 6
f 1 6 2
f 2 6 10
f 2 10 5
f 3 7 8
f 4 9 10
f 4 10 6
f 5 10 9
f 5 9 8
f 5 8 7

