# https://github.com/mikedh/trimesh
v 0.59049129 33.63086371 -80.88000298
v 0.59049129 33.63086371 -23.20478678
v 0.59049129 38.81125836 -80.88000298
v 79.19796944 33.63086371 -80.88000298
v 0.59049129 38.81125836 -25.78884602
v 15.28075933 33.63086371 -16.96675301
v 20.05961657 38.80618719 -16.96675301
v 79.19796944 38.81125836 -80.88000298
v 80.43984413 33.63086371 -80.43577194
v 20.51549435 38.81125836 -16.96675301
v 80.88000298 33.63086371 -16.96675301
v 80.43984413 38.81125836 -80.43577194
v 80.88000298 33.63086371 -79.19692039
v 80.88000298 38.81125836 -16.96675301
v 80.88000298 38.81125836 -79.19692039
f 1 2 5
f 1 5 3
f 1 3 8
f 1 8 4
f 1 4 9
f 1 9 13
f 1 13 11
f 1 11 6
f 1 6 2
f 2 6 7
f 2 7 5
f 3 5 10
f 3 10 14
f 3 14 15
f 3 15 12
f 3 12 8
f 4 8 12
f 4 12 9
f 5 7 10
f 6 11 14
f 6 14 10
f 6 10 7
f 9 12 15
f 9 15 13
f 11 13 15
f 11 15 14

