# https://github.com/mikedh/trimesh
v -79.19748306 33.63086371 -80.87360382
v -80.43345451 33.63086371 -80.43810844
v -79.22937870 38.81125836 -80.86719513
v -79.19748306 38.81125836 -80.87360382
v 0.58262825 33.63086371 -80.87360382
v -80.44940948 38.81125836 -80.40609360
v -80.43345451 38.81125836 -80.43810844
v -80.88000298 33.63086371 -79.19568062
v 0.58262825 38.81125836 -80.87360382
v 0.58262825 33.63086371 -23.20309162
v -80.88000298 38.81125836 -79.19568062
v -80.88000298 33.63086371 -15.45391798
v 0.58262825 38.81125836 -25.79041958
v -16.65721178 33.63086371 -15.45391798
v -20.18173218 38.81125836 -15.45391798
v -80.88000298 38.81125836 -16.76038980
v -80.88000298 38.80517272 -15.45391798
v -73.13722610 38.81125836 -15.45391798
f 1 2 3
f 1 3 4
f 1 4 9
f 1 9 5
f 1 5 10
f 1 10 14
f 1 14 12
f 1 12 8
f 1 8 2
f 2 6 7
f 2 7 3
f 2 8 6
f 3 7 6
f 3 6 11
f 3 11 16
f 3 16 18
f 3 18 15
f 3 15 13
f 3 13 9
f 3 9 4
f 5 9 13
f 5 13 10
f 6 8 11
f 8 12 17
f 8 17 16
f 8 16 11
f 10 13 15
f 10 15 14
f 12 14 15
f 12 15 18
f 12 18 17
f 16 17 18

